<?xml version="1.0" standalone="no"?>
<!DOCTYPE svg PUBLIC "-//W3C//DTD SVG 20010904//EN"
 "http://www.w3.org/TR/2001/REC-SVG-20010904/DTD/svg10.dtd">
<svg version="1.0" xmlns="http://www.w3.org/2000/svg"
 width="512.000000pt" height="512.000000pt" viewBox="0 0 512.000000 512.000000"
 preserveAspectRatio="xMidYMid meet">

<g transform="translate(0.000000,512.000000) scale(0.100000,-0.100000)"
fill="#000000" stroke="none">
<path d="M460 5094 c-210 -55 -376 -221 -437 -434 -17 -62 -18 -156 -18 -2110
l0 -2045 28 -80 c72 -203 212 -337 423 -402 56 -17 149 -18 2109 -18 l2050 0
85 31 c199 71 333 213 397 420 17 56 18 149 18 2099 0 1949 -1 2043 -18 2105
-61 216 -229 381 -442 435 -87 22 -4110 22 -4195 -1z m1604 -926 c53 -16 121
-84 135 -134 8 -27 11 -447 11 -1340 l0 -1300 -25 -51 c-16 -32 -41 -61 -67
-79 l-41 -29 -476 -3 c-321 -2 -488 0 -513 8 -48 14 -94 53 -117 99 -18 34
-19 98 -22 1361 l-4 1325 27 47 c28 46 74 82 126 98 46 14 918 12 966 -2z
m1967 1 c51 -18 97 -55 122 -102 l22 -42 3 -723 c2 -498 -1 -736 -8 -763 -7
-25 -28 -57 -54 -84 -66 -65 -80 -67 -601 -63 l-450 3 -47 28 c-31 18 -57 44
-75 75 l-28 47 0 740 0 740 22 42 c25 45 70 84 118 101 43 15 931 16 976 1z"/>
</g>
</svg>
